<svg
    xmlns="http://www.w3.org/2000/svg"
    viewBox="0 0 192 192"
    fill="currentColor" >
    <path d="m80 0h-64c-8.8 0-16 7.2-16 16v64c0 8.8 7.2 16 16 16h64c8.8 0 16-7.2 16-16v-64c0-8.8-7.2-16-16-16zm-48 72c-4.4 0-8-3.6-8-8s3.6-8 8-8 8 3.6 8 8-3.6 8-8 8zm0-32c-4.4 0-8-3.6-8-8s3.6-8 8-8 8 3.6 8 8-3.6 8-8 8zm32 32c-4.4 0-8-3.6-8-8s3.6-8 8-8 8 3.6 8 8-3.6 8-8 8zm0-32c-4.4 0-8-3.6-8-8s3.6-8 8-8 8 3.6 8 8-3.6 8-8 8z"/>
    <path d="m186.6 118.7-45.3-45.3c-6.3-6.2-16.4-6.2-22.6 0l-45.3 45.3c-6.2 6.3-6.2 16.4 0 22.6l45.3 45.3c6.3 6.2 16.4 6.2 22.6 0l45.3-45.3c6.2-6.2 6.2-16.4 0-22.6zm-73.6 17c-3.1 3.1-8.2 3.1-11.3 0s-3.1-8.2 0-11.3 8.2-3.1 11.3 0c3.2 3.1 3.2 8.1 0 11.3zm22.7 0c-3.1 3.1-8.2 3.1-11.3 0s-3.1-8.2 0-11.3 8.2-3.1 11.3 0 3.1 8.1 0 11.3zm22.6 0c-3.1 3.1-8.2 3.1-11.3 0s-3.1-8.2 0-11.3 8.2-3.1 11.3 0 3.1 8.1 0 11.3z"/>
</svg>